Coordinates
version=1
nRows=24
nColumns=22
inDegrees=yes

Units are S.I. units (second, meters, Newtons, ...)
If the header above contains a line with 'inDegrees', this indicates whether rotational values are in degrees (yes) or radians (no).

endheader
time	pelvis_tilt	pelvis_list	pelvis_rotation	pelvis_tx	pelvis_ty	pelvis_tz	hip_flexion_r	hip_adduction_r	hip_rotation_r	knee_angle_r	ankle_angle_r	subtalar_angle_r	hip_flexion_l	hip_adduction_l	hip_rotation_l	knee_angle_l	ankle_angle_l	subtalar_angle_l	lumbar_extension	lumbar_bending	lumbar_rotation
      0.01000000	     -3.50378068	      4.23052055	    175.45262043	     -1.44257587	      1.02889361	     -0.10997462	     -2.05659022	      6.63090683	     -0.02243123	    -11.64541811	      9.43240429	     -3.80864300	     -2.52377414	     -2.88180638	     -4.45684688	    -11.66994287	     11.84583231	     -2.10318665	    -11.36727699	      4.63541286	      3.25334161
      0.02000000	     -3.51948231	      4.22435653	    175.45638091	     -1.44234281	      1.02892637	     -0.10993614	     -2.05040150	      6.62265776	     -0.01978418	    -11.65957540	      9.42561241	     -3.80837764	     -2.51029967	     -2.87512926	     -4.44358565	    -11.70014233	     11.85072051	     -2.09659355	    -11.42212709	      4.63463995	      3.27225711
      0.03000000	     -3.56486946	      4.22080915	    175.46185460	     -1.44205318	      1.02900144	     -0.10988676	     -2.07001163	      6.61350793	     -0.04249044	    -11.67876671	      9.41740967	     -3.80895136	     -2.51543078	     -2.87079080	     -4.45737669	    -11.75030384	     11.88678653	     -2.05467328	    -11.52946380	      4.63408474	      3.28642463
      0.04000000	     -3.60718439	      4.22242796	    175.46944584	     -1.44169504	      1.02908407	     -0.10983819	     -2.08666738	      6.61193196	     -0.04626262	    -11.68973131	      9.39758567	     -3.80916013	     -2.50830247	     -2.87339401	     -4.45507844	    -11.81058810	     11.90883062	     -1.99267579	    -11.65142863	      4.63761438	      3.30234167
      0.05000000	     -3.63376775	      4.22297967	    175.47639871	     -1.44127478	      1.02915119	     -0.10977651	     -2.08172362	      6.60999660	     -0.04927582	    -11.70142601	      9.37653663	     -3.80950334	     -2.47418776	     -2.87536103	     -4.44598797	    -11.88271232	     11.92636235	     -1.93849276	    -11.77214516	      4.64176903	      3.32523047
      0.06000000	     -3.64720201	      4.22507352	    175.48249516	     -1.44079527	      1.02920325	     -0.10973122	     -2.05808886	      6.61218956	     -0.05511020	    -11.71472501	      9.35050364	     -3.81007086	     -2.41582930	     -2.88253869	     -4.43598989	    -11.96788728	     11.94404900	     -1.89254435	    -11.89513643	      4.64296032	      3.34548797
      0.07000000	     -3.65141748	      4.22236067	    175.48659709	     -1.44027850	      1.02925169	     -0.10968531	     -2.02383595	      6.61074601	     -0.04552118	    -11.72555672	      9.32980640	     -3.80985530	     -2.34984689	     -2.88242458	     -4.40409285	    -12.04394102	     11.94120257	     -1.87904551	    -12.01967465	      4.63530390	      3.37926988
      0.08000000	     -3.63524180	      4.23419090	    175.49606660	     -1.43972337	      1.02927232	     -0.10964028	     -1.96339327	      6.62572546	     -0.07533486	    -11.73812635	      9.27884509	     -3.81057703	     -2.24208355	     -2.90503648	     -4.41119771	    -12.15435322	     11.97124825	     -1.83393682	    -12.13435668	      4.64560014	      3.38979995
      0.09000000	     -3.58414684	      4.24186411	    175.50343018	     -1.43915183	      1.02925012	     -0.10959048	     -1.86437114	      6.63938145	     -0.08561308	    -11.75172692	      9.22842175	     -3.81204464	     -2.10372810	     -2.92324495	     -4.38985647	    -12.24841584	     11.98486714	     -1.78117166	    -12.21563682	      4.65309387	      3.41477278
      0.10000000	     -3.51930341	      4.24036271	    175.50350073	     -1.43858936	      1.02921386	     -0.10955112	     -1.75079955	      6.64406706	     -0.09608762	    -11.76492046	      9.18755191	     -3.81149070	     -1.96155674	     -2.93084068	     -4.37395028	    -12.32240012	     11.98518013	     -1.74639728	    -12.28445446	      4.64717977	      3.44737873
      0.11000000	     -3.45244948	      4.23871925	    175.50083058	     -1.43805451	      1.02918287	     -0.10952576	     -1.64279750	      6.64943054	     -0.10008353	    -11.76769483	      9.14607068	     -3.80695799	     -1.83432570	     -2.93730393	     -4.35571562	    -12.36700639	     11.97713762	     -1.72492724	    -12.35223562	      4.63493720	      3.48240386
      0.12000000	     -3.36754457	      4.23201329	    175.49310239	     -1.43754568	      1.02913130	     -0.10948737	     -1.51823059	      6.64827116	     -0.10655051	    -11.76682655	      9.10888809	     -3.79870301	     -1.69981317	     -2.93797069	     -4.34964353	    -12.39109725	     11.96271922	     -1.70126764	    -12.39980723	      4.62170576	      3.51730115
      0.13000000	     -3.28586979	      4.22314779	    175.48254453	     -1.43706728	      1.02909284	     -0.10947954	     -1.39986874	      6.64631727	     -0.11042575	    -11.76589291	      9.06376878	     -3.78815989	     -1.58900888	     -2.93662035	     -4.34936133	    -12.37898226	     11.93430409	     -1.68071078	    -12.45034222	      4.59679279	      3.54579835
      0.14000000	     -3.16990651	      4.20953098	    175.47046589	     -1.43658485	      1.02899827	     -0.10946152	     -1.24149654	      6.64137514	     -0.10666362	    -11.76972654	      9.05088389	     -3.77462254	     -1.43896287	     -2.93321561	     -4.35619187	    -12.37104899	     11.91448445	     -1.64982998	    -12.46305140	      4.57323334	      3.56560243
      0.15000000	     -3.10595522	      4.20255893	    175.46052336	     -1.43616581	      1.02900088	     -0.10944814	     -1.14890297	      6.63859288	     -0.11795257	    -11.76290243	      8.99351612	     -3.76645762	     -1.38670306	     -2.92990640	     -4.36338837	    -12.28918431	     11.87066938	     -1.64034684	    -12.53221111	      4.55203877	      3.57953893
      0.16000000	     -2.94328766	      4.17146591	    175.43914930	     -1.43569742	      1.02884804	     -0.10945369	     -0.93731571	      6.61942196	     -0.10795422	    -11.77192983	      8.97694167	     -3.74548197	     -1.20731198	     -2.91118656	     -4.38650830	    -12.23763315	     11.80613498	     -1.61076321	    -12.48509228	      4.50795889	      3.59085708
      0.17000000	     -2.85046501	      4.15911484	    175.42880957	     -1.43527577	      1.02881824	     -0.10944756	     -0.81648024	      6.61315344	     -0.12637737	    -11.75670708	      8.91078547	     -3.73450787	     -1.13733916	     -2.90391652	     -4.38836843	    -12.12736979	     11.72404800	     -1.59997317	    -12.51690025	      4.48165301	      3.61237308
      0.18000000	     -2.68268423	      4.12439703	    175.41682614	     -1.43481444	      1.02865994	     -0.10943829	     -0.59477071	      6.59043973	     -0.12811549	    -11.77523776	      8.89401126	     -3.71874526	     -0.97081760	     -2.88069751	     -4.40893184	    -12.03546524	     11.64445032	     -1.59102379	    -12.45717203	      4.43972739	      3.59785398
      0.19000000	     -2.57872941	      4.11137841	    175.41012108	     -1.43438417	      1.02861478	     -0.10942823	     -0.46079003	      6.58419705	     -0.15046131	    -11.75992103	      8.83046142	     -3.70945503	     -0.90105810	     -2.87349751	     -4.40997766	    -11.89805438	     11.54201143	     -1.58541845	    -12.46924567	      4.41634755	      3.61377573
      0.20000000	     -2.45026638	      4.08440953	    175.40338002	     -1.43395009	      1.02853048	     -0.10942698	     -0.29425428	      6.56696091	     -0.16408757	    -11.75663976	      8.78123935	     -3.69942767	     -0.80578598	     -2.85345123	     -4.41577930	    -11.75332826	     11.42001746	     -1.58385927	    -12.44614625	      4.37775188	      3.61307394
      0.21000000	     -2.26121798	      4.04258403	    175.40021894	     -1.43346247	      1.02832941	     -0.10942456	     -0.03867445	      6.53965105	     -0.17747467	    -11.79192691	      8.77637251	     -3.69051734	     -0.61835798	     -2.82587823	     -4.43386433	    -11.64917088	     11.32928462	     -1.60134110	    -12.35175088	      4.32946274	      3.58129314
      0.22000000	     -2.16142980	      4.03063878	    175.39468873	     -1.43304324	      1.02828615	     -0.10944108	      0.09239688	      6.53629753	     -0.20188359	    -11.78154492	      8.71575762	     -3.68387773	     -0.56695108	     -2.82016575	     -4.43918689	    -11.48504249	     11.20837201	     -1.60019417	    -12.35569043	      4.30491699	      3.59098382
      0.23000000	     -2.00724706	      3.98474446	    175.39043772	     -1.43259496	      1.02813731	     -0.10946029	      0.30431536	      6.50322527	     -0.20402885	    -11.81000032	      8.70402460	     -3.67823872	     -0.43693290	     -2.78397205	     -4.45579422	    -11.34737576	     11.09055358	     -1.61890978	    -12.29043346	      4.24622442	      3.55733446
      0.24000000	     -1.91543407	      3.97352764	    175.38344133	     -1.43220960	      1.02809012	     -0.10950059	      0.42657689	      6.50092424	     -0.22741235	    -11.80426142	      8.65312555	     -3.67327534	     -0.40029762	     -2.77911127	     -4.46449557	    -11.17631708	     10.97885245	     -1.61903564	    -12.29392515	      4.22113491	      3.55855344
